<?xml version="1.0" encoding="UTF-8"?>
<svg xmlns="http://www.w3.org/2000/svg" version="1.1" viewBox="0 0 2258.17 643.24">
  <defs>
    <style>
      .cls-1 {
        stroke-width: 4.62px;
      }

      .cls-1, .cls-2, .cls-3, .cls-4, .cls-5, .cls-6, .cls-7, .cls-8, .cls-9, .cls-10, .cls-11, .cls-12, .cls-13, .cls-14, .cls-15, .cls-16, .cls-17 {
        fill: none;
        stroke: #000;
        stroke-miterlimit: 10;
      }

      .cls-18 {
        stroke-width: 0px;
      }

      .cls-18, .cls-19 {
        fill: #000;
      }

      .cls-2 {
        stroke-width: 4.5px;
      }

      .cls-3 {
        stroke-width: 4.38px;
      }

      .cls-4 {
        stroke-width: 4.75px;
      }

      .cls-5 {
        stroke-width: 4.94px;
      }

      .cls-6 {
        stroke-width: 4.44px;
      }

      .cls-7 {
        stroke-width: 4.19px;
      }

      .cls-8 {
        stroke-width: 4.69px;
      }

      .cls-9 {
        stroke-width: 4.25px;
      }

      .cls-10 {
        stroke-width: 4.88px;
      }

      .cls-11 {
        stroke-width: 4px;
      }

      .cls-12 {
        stroke-width: 4.56px;
      }

      .cls-20 {
        letter-spacing: .02em;
      }

      .cls-13 {
        stroke-width: 5px;
      }

      .cls-14 {
        stroke-width: 4.06px;
      }

      .cls-15 {
        stroke-width: 4.31px;
      }

      .cls-21, .cls-19 {
        display: none;
      }

      .cls-16 {
        stroke-width: 4.81px;
      }

      .cls-19 {
        font-family: 'moon_get-Heavy', 'MOON GET!';
        font-size: 231.45px;
        font-weight: 800;
      }

      .cls-17 {
        stroke-width: 4.12px;
      }
    </style>
  </defs>
  <g id="Layer_1_copy" data-name="Layer 1 copy">
    <text class="cls-19" transform="translate(557.13 403.36)"><tspan x="0" y="0">TALE</tspan><tspan class="cls-20" x="715.87" y="0">NTIDE</tspan></text>
    <g>
      <path class="cls-18" d="M732.72,268.83c0,2.49-2.01,4.52-4.52,4.52h-50.79v171.78c0,2.49-2.01,4.52-4.52,4.52h-55.94c-2.49,0-4.52-2.01-4.52-4.52v-171.8h-50.79c-2.49,0-4.52-2.01-4.52-4.52v-46.09c0-2.51,2.01-4.52,4.52-4.52h166.58c2.46,0,4.5,2.01,4.5,4.52v46.11Z"/>
      <path class="cls-18" d="M841.78,221.14l81.93,221c.18.5.27,1.02.27,1.56v1.45c-.02,2.49-2.03,4.5-4.52,4.5h-56.82c-1.88,0-3.57-1.18-4.23-2.94l-12.29-33.25h-73.93l-12.45,33.27c-.66,1.76-2.35,2.94-4.23,2.94h-56.84c-2.51,0-4.52-2.03-4.52-4.52v-1.45c0-.54.09-1.06.27-1.58l81.91-220.98c.66-1.76,2.35-2.94,4.23-2.94h57c1.88,0,3.57,1.18,4.23,2.94ZM825.06,356.64l-16-42.74-15.84,42.74h31.85Z"/>
      <path class="cls-18" d="M1064.59,449.65h-129.15c-2.51,0-4.52-2.03-4.52-4.52v-222.4c0-2.51,2.01-4.52,4.52-4.52h55.92c2.51,0,4.52,2.03,4.52,4.52v173h68.69c2.51,0,4.52,2.03,4.52,4.52v44.89c0,2.51-2.01,4.52-4.5,4.52Z"/>
      <path class="cls-18" d="M1075.81,445.13v-222.4c0-2.51,2.01-4.52,4.52-4.52h136c2.49,0,4.52,2.01,4.52,4.52v46.18c0,2.49-2.01,4.52-4.52,4.52h-75.56v32.91h65.25c2.49,0,4.52,2.01,4.52,4.52v46.18c0,2.49-2.01,4.52-4.52,4.52h-65.25v32.91h75.56c2.49,0,4.52,2.01,4.52,4.52v46.15c0,2.49-2.01,4.52-4.52,4.52h-136c-2.49,0-4.52-2.01-4.52-4.52Z"/>
      <path class="cls-18" d="M1370.98,218.2h55.96c2.51,0,4.52,2.03,4.52,4.52v222.38c0,2.51-2.03,4.52-4.52,4.52h-57.82c-1.63,0-3.14-.86-3.93-2.28l-72.58-128.22v126.01c0,2.51-2.03,4.52-4.52,4.52h-55.94c-2.51,0-4.52-2.03-4.52-4.52v-222.4c0-2.51,2.01-4.52,4.52-4.52h57.95c1.56,0,3.01.79,3.82,2.12l72.55,116.85v-114.46c0-2.51,2.01-4.52,4.5-4.52Z"/>
      <path class="cls-18" d="M1619.64,268.83c0,2.49-2.01,4.52-4.52,4.52h-50.79v171.78c0,2.49-2.01,4.52-4.52,4.52h-55.94c-2.49,0-4.52-2.01-4.52-4.52v-171.8h-50.79c-2.49,0-4.52-2.01-4.52-4.52v-46.09c0-2.51,2.01-4.52,4.52-4.52h166.58c2.46,0,4.5,2.01,4.5,4.52v46.11Z"/>
      <path class="cls-18" d="M1636.73,449.65c-2.49,0-4.52-2.01-4.52-4.52v-222.4c0-2.51,2.01-4.52,4.52-4.52h55.94c2.49,0,4.52,2.01,4.52,4.52v222.4c-.02,2.51-2.03,4.52-4.52,4.52h-55.94Z"/>
      <path class="cls-18" d="M1903.24,333.93c0,81.34-45.25,115.72-101.08,115.72h-87.9c-2.51,0-4.52-2.03-4.52-4.52v-222.4c0-2.51,2.01-4.52,4.52-4.52h87.88c55.83,0,101.1,34.38,101.1,115.72ZM1837.54,333.77c0-42.81-22.38-61.12-49.97-61.12h-10.6c-1.24,0-2.26,1.02-2.26,2.26v117.71c0,1.24,1.02,2.26,2.26,2.26h10.6c27.6,0,49.97-18.31,49.97-61.12Z"/>
      <path class="cls-18" d="M1915.97,445.13v-222.4c0-2.51,2.01-4.52,4.52-4.52h136c2.49,0,4.52,2.01,4.52,4.52v46.18c0,2.49-2.01,4.52-4.52,4.52h-75.56v32.91h65.25c2.49,0,4.52,2.01,4.52,4.52v46.18c0,2.49-2.01,4.52-4.52,4.52h-65.25v32.91h75.56c2.49,0,4.52,2.01,4.52,4.52v46.15c0,2.49-2.01,4.52-4.52,4.52h-136c-2.49,0-4.52-2.01-4.52-4.52Z"/>
    </g>
    <g>
      <path class="cls-11" d="M361.37,345.75c-11.81-1.91-14.63-13.36-22.33-11.15-6.54,1.88-11.31,12.09-11.03,21.34.35,11.34,8.19,17.76,9.1,18.48,9.11,7.2,17.41,2.77,22.05,2.19,14.25-1.8,8.73-5.83,16.27-9.83,14.9-7.9,24.98-3.09,27.02-8.6,1.89-5.09-2.35-12.16-10.51-15.12-10.53-3.82-17.68,4.78-30.57,2.69Z"/>
      <path class="cls-14" d="M332.69,330.46c-6.83,2.97-11.07,13.24-11.3,24.3-.29,14.1,6.01,20.59,7.38,22.14,4.38,4.99,11.01,4.5,17.99,6.02,6.15,1.34,9.2,2.71,14.06,1.7,12.71-2.65,12.39-3.07,18.99-7.13.74-.46,1.65-.95,2.73-1.47,4.45-2.15,8.72-4.1,12.35-5.8,9.06-4.25,13.97-3.05,15.47-9.81,1.85-8.5-.5-16.18-8.76-20.5-5.67-2.97-12.22-.6-18.11-1.3-3.74-.44-5.99-.69-10.28-1.21-3.39-.42-7.14-.18-11.36-.56-8.27-.74-13.28-3.77-18.49-5.5-3.99-1.33-6.98-2.47-10.66-.87Z"/>
      <path class="cls-17" d="M326.35,326.32c-7.12,4.03-10.85,14.4-11.57,27.25-.95,16.87,3.87,23.37,5.65,25.8,4.71,6.43,13.72,4.64,24.08,7.98,8.18,2.63,10.47,6.65,17.98,5.26,13.05-2.41,15.03-1.2,23.78-5.76.92-.48,2.05-1.02,3.39-1.62,5.13-2.32,10.21-4.92,14.41-7.68,8.98-5.9,12.73-5.54,14.2-14.93,1.81-11.92,1.39-20.36-7.01-25.89-6.47-4.25-15.4-.28-22.89-2.97-4.65-1.67-6.27-3.18-11.61-4.73-4.26-1.23-9.03-.88-14.44-1.12-9.9-.44-16.11-2.43-23.14-2.89-5.28-.34-8.85-.96-12.82,1.29Z"/>
      <path class="cls-7" d="M320.02,322.18c-7.43,5.06-10.64,15.55-11.85,30.21-1.62,19.63,1.76,26.15,3.93,29.46,5.11,7.83,16.46,4.73,30.17,9.94,10.23,3.89,11.71,6.99,21.9,8.82,13.37,2.4,17.65.64,28.57-4.38,1.09-.5,2.46-1.09,4.05-1.77,5.82-2.49,11.74-5.67,16.47-9.56,8.98-7.38,11.49-8.02,12.92-20.05,1.78-15.33,3.33-24.64-5.27-31.27-7.25-5.59-18.59.07-27.67-4.65-5.56-2.89-6.54-5.68-12.95-8.25-5.12-2.05-10.91-1.58-17.51-1.68-11.54-.17-18.93-1.11-27.79-.27-6.57.62-10.72.54-14.99,3.45Z"/>
      <path class="cls-9" d="M313.68,318.03c-7.74,6.07-10.43,16.7-12.12,33.17-2.3,22.39-.33,28.91,2.21,33.13,5.54,9.22,19.22,4.79,36.25,11.9,12.29,5.14,13.06,9.6,25.82,12.38,13.59,2.96,20.26,2.47,33.36-3.01,1.27-.53,2.87-1.16,4.71-1.92,6.5-2.68,13.31-6.38,18.53-11.44,9.07-8.78,10.25-10.51,11.65-25.17,1.74-18.74,5.31-28.96-3.52-36.65-8-6.97-21.8.43-32.45-6.33-6.48-4.11-6.82-8.19-14.28-11.77-5.99-2.88-12.8-2.3-20.58-2.24-13.17.09-21.76.2-32.44,2.35-7.86,1.58-12.6,2.03-17.15,5.61Z"/>
      <path class="cls-15" d="M307.34,313.89c-8.06,7.08-10.23,17.85-12.39,36.12-2.98,25.16-2.41,31.67.48,36.79,5.99,10.6,21.99,4.83,42.34,13.86,14.36,6.37,14.44,12.12,29.74,15.94,13.84,3.46,22.86,4.28,38.14-1.63,1.44-.56,3.28-1.23,5.37-2.07,7.18-2.86,14.92-7.06,20.6-13.32,9.21-10.15,9.02-13,10.38-30.29,1.71-22.15,7.32-33.31-1.77-42.04-8.72-8.37-25.01.78-37.23-8-7.4-5.32-7.09-10.69-15.61-15.29-6.85-3.7-14.69-3.01-23.66-2.81-14.81.34-24.6,1.5-37.09,4.96-9.15,2.54-14.48,3.52-19.31,7.76Z"/>
      <path class="cls-3" d="M301,309.75c-8.39,8.08-10.03,19.01-12.66,39.08-3.67,27.92-4.48,34.43-1.24,40.45,6.45,11.99,24.77,4.87,48.42,15.83,16.44,7.61,15.86,14.55,33.66,19.51,14.11,3.93,25.46,6.08,42.93-.25,1.62-.59,3.68-1.3,6.03-2.21,7.86-3.04,16.56-7.73,22.66-15.2,9.4-11.5,7.78-15.48,9.11-35.42,1.67-25.57,9.35-37.67-.03-47.42-9.41-9.79-28.22,1.14-42.01-9.68-8.33-6.54-7.36-13.19-16.94-18.81-7.72-4.52-16.57-3.74-26.73-3.37-16.44.59-27.44,2.8-41.74,7.58-10.45,3.49-16.37,5-21.47,9.92Z"/>
      <path class="cls-6" d="M294.66,305.61c-8.73,9.08-9.83,20.16-12.94,42.03-4.36,30.68-6.55,37.18-2.96,44.11,6.92,13.37,27.56,4.91,54.51,17.79,18.51,8.84,17.31,16.9,37.58,23.07,14.41,4.39,28.07,7.87,47.72,1.12,1.79-.61,4.09-1.38,6.7-2.36,8.54-3.23,18.23-8.39,24.72-17.08,9.62-12.86,6.54-17.97,7.84-40.54,1.63-28.98,11.4-42.03,1.72-52.81-10.08-11.22-31.44,1.49-46.78-11.35-9.26-7.75-7.62-15.71-18.28-22.33-8.57-5.36-18.46-4.46-29.8-3.93-18.08.84-30.28,4.1-46.39,10.2-11.75,4.45-18.26,6.48-23.64,12.08Z"/>
      <path class="cls-2" d="M288.32,301.47c-9.07,10.08-9.63,21.31-13.21,44.99-5.05,33.44-8.61,39.94-4.69,47.77,7.39,14.76,30.35,4.94,60.6,19.75,20.59,10.08,18.8,19.17,41.5,26.63,14.72,4.84,30.67,9.66,52.51,2.5,1.96-.64,4.5-1.45,7.36-2.51,9.21-3.42,19.92-9.05,26.78-18.96,9.86-14.22,5.3-20.46,6.57-45.66,1.6-32.39,13.46-46.4,3.47-58.19-10.73-12.66-34.66,1.85-51.56-13.03-10.18-8.97-7.89-18.22-19.61-25.85-9.44-6.18-20.35-5.18-32.88-4.5-19.72,1.08-33.13,5.4-51.04,12.82-13.05,5.4-20.15,7.96-25.8,14.24Z"/>
      <path class="cls-12" d="M281.98,297.33c-9.42,11.08-9.44,22.46-13.48,47.94-5.75,36.2-10.67,42.7-6.41,51.44,7.87,16.15,33.14,4.98,66.68,21.71,22.67,11.31,20.33,21.39,45.42,30.19,15.05,5.28,33.27,11.44,57.3,3.87,2.14-.67,4.9-1.52,8.02-2.66,9.89-3.61,21.62-9.71,28.85-20.84,10.11-15.58,4.06-22.94,5.3-50.78,1.56-35.81,15.53-50.77,5.22-63.57-11.36-14.1-37.88,2.21-56.34-14.71-11.11-10.18-8.16-20.72-20.94-29.37-10.3-7-22.24-5.91-35.95-5.06-21.35,1.32-35.97,6.7-55.69,15.43-14.35,6.35-22.05,9.44-27.96,16.4Z"/>
      <path class="cls-1" d="M275.64,293.18c-9.76,12.07-9.3,23.6-13.76,50.9-6.52,38.95-12.72,45.45-8.13,55.1,8.34,17.53,35.93,5.01,72.77,23.67,24.76,12.54,21.9,23.55,49.34,33.76,15.4,5.73,35.87,13.22,62.09,5.25,2.31-.7,5.31-1.6,8.68-2.81,10.57-3.8,23.34-10.36,30.91-22.72,10.38-16.95,2.82-25.43,4.03-55.9,1.53-39.22,17.61-55.14,6.96-68.96-11.98-15.55-41.1,2.56-61.12-16.38-12.04-11.4-8.43-23.22-22.28-32.89-11.17-7.82-24.13-6.64-39.02-5.62-22.99,1.56-38.82,8-60.34,18.05-15.65,7.31-23.95,10.92-30.12,18.55Z"/>
      <path class="cls-8" d="M269.3,289.04c-10.12,13.07-9.09,24.75-14.03,53.86-7.21,41.72-14.78,48.2-9.86,58.76,8.82,18.92,38.72,5.03,78.85,25.63,26.84,13.78,23.49,25.66,53.26,37.32,15.76,6.17,38.47,15,66.87,6.62,2.48-.73,5.71-1.67,9.34-2.95,11.25-3.99,25.07-11.02,32.97-24.6,10.66-18.32,1.59-27.92,2.76-61.03,1.49-42.63,19.7-59.51,8.71-74.34-12.6-16.99-44.36,2.95-65.9-18.06-13-12.59-8.7-25.72-23.61-36.41-12.03-8.65-26.02-7.36-42.1-6.19-24.63,1.8-41.66,9.3-64.99,20.67-16.96,8.26-25.85,12.39-32.29,20.71Z"/>
      <path class="cls-4" d="M262.96,284.9c-10.47,14.07-8.89,25.9-14.3,56.81-7.89,44.48-16.83,50.96-11.58,62.42,9.3,20.31,41.52,5.06,84.94,27.6,28.92,15.01,25.12,27.73,57.18,40.88,16.13,6.62,41.07,16.78,71.66,8,2.66-.76,6.12-1.74,10-3.1,11.93-4.18,26.8-11.67,35.03-26.48,10.95-19.69.35-30.4,1.49-66.15,1.45-46.05,21.8-63.88,10.46-79.73-13.2-18.44-47.58,3.3-70.67-19.74-13.92-13.81-8.97-28.23-24.94-39.93-12.9-9.47-27.9-8.09-45.17-6.75-26.27,2.04-44.53,10.57-69.64,23.29-18.28,9.19-27.75,13.87-34.45,22.87Z"/>
      <path class="cls-16" d="M256.62,280.76c-10.83,15.06-8.69,27.05-14.57,59.77-8.58,47.24-18.88,53.71-13.3,66.09,9.79,21.7,44.31,5.09,91.03,29.56,31.01,16.24,26.78,29.76,61.1,44.44,16.51,7.07,43.67,18.55,76.45,9.37,2.83-.79,6.52-1.82,10.66-3.25,12.6-4.39,28.54-12.33,37.1-28.36,11.24-21.07-.89-32.89.22-71.27,1.42-49.46,23.89-68.25,12.2-85.11-13.79-19.9-50.79,3.65-75.45-21.41-14.85-15.03-9.24-30.73-26.27-43.45-13.76-10.29-29.8-8.85-48.24-7.31-27.91,2.24-47.38,11.88-74.3,25.9-19.58,10.15-29.65,15.35-36.61,25.03Z"/>
      <path class="cls-10" d="M250.28,276.62c-11.18,16.06-8.49,28.21-14.85,62.72-9.27,50-20.93,56.47-15.02,69.75,10.27,23.09,47.15,5.05,97.11,31.52,33.12,17.43,28.46,31.75,65.02,48.01,16.9,7.51,46.25,20.27,81.24,10.75,3-.83,6.93-1.9,11.32-3.4,13.28-4.57,30.29-12.99,39.16-30.24,11.54-22.45-2.13-35.38-1.05-76.39,1.38-52.87,26-72.61,13.95-90.49-14.38-21.35-54,4-80.23-23.09-15.77-16.25-9.51-33.23-27.61-46.97-14.62-11.11-31.69-9.57-51.32-7.88-29.55,2.49-50.22,13.19-78.95,28.52-20.88,11.11-31.56,16.83-38.77,27.19Z"/>
      <path class="cls-5" d="M243.95,272.48c-11.57,17.05-8.29,29.36-15.12,65.68-9.95,52.76-22.95,59.21-16.75,73.41,10.8,24.46,49.93,5.11,103.2,33.48,35.19,18.68,30.16,33.72,68.94,51.57,17.3,7.97,48.86,22.07,86.03,12.13,3.18-.86,7.34-1.97,11.98-3.55,13.96-4.75,32.04-13.64,41.22-32.12,11.84-23.84-3.37-37.86-2.32-81.51,1.35-56.29,28.1-76.98,15.7-95.88-14.97-22.8-57.22,4.35-85.01-24.76-16.69-17.47-9.78-35.73-28.94-50.49-15.49-11.93-33.57-10.29-54.39-8.44-31.19,2.74-53.06,14.5-83.6,31.14-22.18,12.07-33.48,18.29-40.94,29.35Z"/>
      <path class="cls-13" d="M280.7,236.83c-23.48,13.03-35.37,19.78-43.1,31.5-11.9,18.06-8.09,30.51-15.39,68.63-10.64,55.52-25.03,61.97-18.47,77.07,11.24,25.87,52.7,5.17,109.28,35.44,37.26,19.94,31.89,35.66,72.86,55.13,17.71,8.42,51.47,23.87,90.81,13.5,13.38-3.53,43.27-11.4,55.92-37.69,12.15-25.23-4.61-40.35-3.59-86.64,1.31-59.7,30.21-81.35,17.44-101.26-15.55-24.26-60.43,4.69-89.79-26.44-17.62-18.69-10.05-38.24-30.27-54.01-16.35-12.76-35.46-11.01-57.46-9-32.83,3-55.9,15.81-88.25,33.75Z"/>
    </g>
  </g>
  <g id="Layer_1" data-name="Layer 1" class="cls-21">
    <g>
      <path class="cls-11" d="M358.3,559.75c-14.64-2.58-18.15-18.12-27.69-15.12-8.11,2.55-14.03,16.4-13.68,28.95.43,15.38,10.15,24.08,11.28,25.06,11.3,9.76,21.59,3.76,27.34,2.97,17.68-2.44,10.82-7.91,20.18-13.34,18.48-10.71,30.97-4.19,33.51-11.67,2.34-6.9-2.91-16.49-13.03-20.51-13.06-5.19-21.92,6.48-37.91,3.66Z"/>
      <path class="cls-14" d="M322.75,539.01c-8.47,4.03-13.73,17.96-14.01,32.96-.36,19.13,7.46,27.92,9.15,30.03,5.43,6.77,13.65,6.1,22.31,8.16,7.63,1.81,11.4,3.68,17.44,2.3,15.76-3.6,15.36-4.16,23.55-9.67.92-.62,2.04-1.29,3.39-2,5.51-2.91,10.81-5.56,15.31-7.86,11.24-5.76,17.32-4.14,19.18-13.3,2.29-11.53-.62-21.94-10.86-27.81-7.03-4.03-15.15-.82-22.46-1.76-4.64-.6-7.43-.93-12.75-1.64-4.2-.56-8.85-.24-14.09-.75-10.25-1-16.47-5.12-22.92-7.47-4.95-1.8-8.66-3.35-13.22-1.18Z"/>
      <path class="cls-17" d="M314.89,533.4c-8.83,5.46-13.45,19.53-14.35,36.97-1.18,22.88,4.81,31.7,7.01,34.99,5.84,8.72,17.01,6.3,29.86,10.82,10.14,3.57,12.98,9.01,22.3,7.13,16.18-3.27,18.64-1.63,29.49-7.81,1.14-.65,2.55-1.38,4.21-2.2,6.37-3.14,12.66-6.67,17.87-10.41,11.13-8.01,15.79-7.51,17.6-20.25,2.25-16.16,1.73-27.62-8.7-35.11-8.03-5.77-19.1-.37-28.39-4.03-5.76-2.27-7.78-4.32-14.4-6.42-5.28-1.67-11.19-1.19-17.9-1.52-12.28-.6-19.98-3.3-28.69-3.92-6.55-.47-10.98-1.3-15.9,1.75Z"/>
      <path class="cls-7" d="M307.02,527.78c-9.21,6.86-13.19,21.09-14.69,40.97-2.01,26.62,2.19,35.46,4.87,39.96,6.34,10.62,20.41,6.41,37.41,13.48,12.68,5.28,14.52,9.48,27.16,11.96,16.58,3.26,21.88.87,35.43-5.94,1.36-.68,3.05-1.48,5.03-2.4,7.21-3.38,14.56-7.69,20.43-12.96,11.14-10.01,14.25-10.88,16.03-27.19,2.21-20.79,4.13-33.42-6.53-42.41-8.99-7.59-23.06.1-34.31-6.31-6.9-3.92-8.11-7.71-16.05-11.19-6.35-2.79-13.53-2.15-21.71-2.28-14.31-.23-23.48-1.51-34.46-.37-8.14.85-13.29.74-18.58,4.68Z"/>
      <path class="cls-9" d="M299.16,522.16c-9.6,8.24-12.93,22.65-15.03,44.98-2.85,30.37-.41,39.21,2.74,44.93,6.87,12.5,23.84,6.49,44.96,16.14,15.24,6.97,16.19,13.03,32.02,16.79,16.85,4.01,25.12,3.34,41.37-4.08,1.57-.72,3.56-1.57,5.84-2.6,8.06-3.63,16.5-8.65,22.98-15.51,11.24-11.91,12.72-14.25,14.45-34.14,2.16-25.42,6.58-39.28-4.36-49.71-9.92-9.45-27.03.58-40.24-8.58-8.04-5.57-8.45-11.1-17.71-15.96-7.43-3.9-15.87-3.11-25.52-3.04-16.33.12-26.99.27-40.23,3.18-9.74,2.15-15.62,2.76-21.27,7.6Z"/>
      <path class="cls-15" d="M291.3,516.54c-10,9.6-12.68,24.22-15.37,48.99-3.7,34.12-2.99,42.95.6,49.89,7.43,14.38,27.27,6.56,52.5,18.8,17.81,8.65,17.9,16.44,36.88,21.63,17.16,4.69,28.35,5.8,47.3-2.21,1.79-.76,4.06-1.67,6.66-2.8,8.9-3.88,18.5-9.58,25.54-18.06,11.42-13.76,11.18-17.63,12.88-41.09,2.12-30.05,9.07-45.18-2.2-57.02s-31.01,1.06-46.17-10.85c-9.18-7.22-8.79-14.5-19.36-20.74-8.5-5.02-18.21-4.09-29.34-3.81-18.36.46-30.51,2.04-45.99,6.73-11.35,3.44-17.95,4.77-23.95,10.53Z"/>
      <path class="cls-3" d="M283.44,510.93c-10.41,10.96-12.43,25.78-15.71,53-4.55,37.87-5.56,46.7-1.54,54.86,8,16.26,30.72,6.61,60.05,21.46,20.38,10.32,19.66,19.73,41.74,26.46,17.5,5.33,31.58,8.24,53.24-.34,2-.79,4.57-1.77,7.48-3,9.74-4.13,20.53-10.49,28.1-20.61,11.66-15.6,9.64-21,11.3-48.04,2.07-34.68,11.59-51.09-.03-64.32s-35,1.54-52.09-13.13c-10.33-8.87-9.13-17.9-21.01-25.51-9.57-6.13-20.55-5.07-33.15-4.57-20.39.8-34.03,3.8-51.76,10.28-12.96,4.74-20.29,6.78-26.63,13.46Z"/>
      <path class="cls-6" d="M275.58,505.31c-10.82,12.32-12.19,27.34-16.04,57.01-5.41,41.61-8.12,50.43-3.67,59.83,8.58,18.14,34.17,6.66,67.6,24.13,22.96,12,21.47,22.92,46.6,31.29,17.87,5.95,34.8,10.67,59.18,1.52,2.22-.83,5.07-1.87,8.3-3.2,10.58-4.38,22.6-11.39,30.66-23.16,11.93-17.44,8.11-24.37,9.73-54.98,2.03-39.31,14.13-57.01,2.14-71.62-12.5-15.22-38.99,2.03-58.02-15.4-11.48-10.51-9.45-21.31-22.67-30.29-10.63-7.27-22.89-6.05-36.96-5.34-22.42,1.13-37.55,5.57-57.53,13.83-14.57,6.03-22.64,8.79-29.31,16.38Z"/>
      <path class="cls-2" d="M267.72,499.69c-11.25,13.67-11.94,28.9-16.38,61.02-6.27,45.36-10.68,54.17-5.81,64.8,9.16,20.02,37.63,6.71,75.14,26.79,25.54,13.67,23.32,26.01,51.46,36.12,18.26,6.56,38.03,13.1,65.12,3.39,2.44-.87,5.57-1.96,9.12-3.4,11.43-4.64,24.7-12.28,33.21-25.71,12.22-19.28,6.57-27.75,8.15-61.93,1.98-43.94,16.69-62.94,4.3-78.92-13.3-17.17-42.98,2.51-63.94-17.67-12.63-12.16-9.78-24.71-24.32-35.06-11.7-8.38-25.23-7.03-40.77-6.1-24.45,1.46-41.08,7.33-63.3,17.38-16.18,7.32-24.99,10.8-31.99,19.31Z"/>
      <path class="cls-12" d="M259.86,494.07c-11.68,15.03-11.7,30.46-16.72,65.03-7.13,49.1-13.23,57.91-7.95,69.76,9.75,21.9,41.09,6.75,82.69,29.45,28.12,15.34,25.21,29.01,56.32,40.95,18.67,7.17,41.25,15.52,71.05,5.25,2.65-.91,6.08-2.06,9.94-3.6,12.27-4.89,26.81-13.17,35.77-28.26,12.54-21.13,5.04-31.12,6.57-68.88,1.94-48.56,19.26-68.86,6.47-86.23-14.09-19.12-46.97,2.99-69.87-19.95-13.78-13.81-10.12-28.1-25.97-39.83-12.78-9.5-27.58-8.01-44.58-6.86-26.48,1.79-44.61,9.09-69.06,20.93-17.8,8.62-27.34,12.8-34.67,22.24Z"/>
      <path class="cls-1" d="M252,488.46c-12.11,16.38-11.53,32.01-17.06,69.04-8.09,52.83-15.78,61.64-10.08,74.73,10.35,23.78,44.55,6.79,90.24,32.11,30.7,17.01,27.15,31.94,61.18,45.79,19.09,7.77,44.48,17.93,76.99,7.12,2.87-.95,6.58-2.16,10.76-3.81,13.11-5.15,28.94-14.06,38.33-30.81,12.88-22.98,3.5-34.49,5-75.82,1.89-53.19,21.84-74.79,8.63-93.53-14.86-21.08-50.97,3.47-75.79-22.22-14.93-15.46-10.45-31.5-27.62-44.61-13.85-10.61-29.92-9-48.39-7.63-28.51,2.12-48.14,10.86-74.83,24.48-19.41,9.91-29.7,14.81-37.36,25.17Z"/>
      <path class="cls-8" d="M244.14,482.84c-12.54,17.73-11.28,33.57-17.4,73.04-8.94,56.58-18.33,65.38-12.22,79.7,10.94,25.66,48.02,6.83,97.79,34.77,33.28,18.68,29.13,34.8,66.04,50.62,19.54,8.37,47.7,20.35,82.93,8.98,3.08-.99,7.09-2.26,11.58-4.01,13.95-5.41,31.08-14.95,40.89-33.36,13.22-24.84,1.97-37.86,3.42-82.77,1.85-57.82,24.43-80.72,10.8-100.83-15.62-23.05-55.01,4-81.72-24.49-16.12-17.08-10.79-34.89-29.28-49.38-14.92-11.73-32.26-9.99-52.2-8.39-30.54,2.45-51.67,12.62-80.6,28.03-21.03,11.2-32.05,16.81-40.04,28.09Z"/>
      <path class="cls-4" d="M236.27,477.22c-12.98,19.08-11.03,35.13-17.73,77.05-9.79,60.32-20.87,69.12-14.36,84.66,11.54,27.55,51.48,6.87,105.33,37.43,35.87,20.36,31.15,37.61,70.91,55.45,20,8.98,50.93,22.76,88.87,10.85,3.3-1.03,7.59-2.36,12.4-4.21,14.79-5.66,33.24-15.83,43.44-35.91,13.58-26.71.43-41.24,1.85-89.72,1.8-62.45,27.03-86.64,12.97-108.13-16.37-25.02-59,4.48-87.64-26.77-17.26-18.73-11.12-38.28-30.93-54.15-15.99-12.84-34.6-10.98-56.02-9.15-32.58,2.77-55.22,14.33-86.37,31.58-22.66,12.46-34.41,18.81-42.72,31.02Z"/>
      <path class="cls-16" d="M228.41,471.6c-13.42,20.43-10.78,36.69-18.07,81.06-10.64,64.07-23.41,72.85-16.49,89.63,12.14,29.43,54.95,6.9,112.88,40.09,38.45,22.03,33.2,40.36,75.77,60.28,20.47,9.58,54.15,25.16,94.8,12.72,3.51-1.08,8.09-2.47,13.22-4.41,15.62-5.95,35.4-16.72,46-38.46,13.94-28.58-1.11-44.61.27-96.66,1.76-67.08,29.63-92.57,15.13-115.44-17.11-26.99-62.98,4.95-93.57-29.04-18.41-20.38-11.46-41.68-32.58-58.93-17.06-13.96-36.95-12.01-59.83-9.92-34.61,3.03-58.75,16.11-92.13,35.13-24.28,13.76-36.77,20.82-45.4,33.95Z"/>
      <path class="cls-10" d="M220.55,465.99c-13.87,21.78-10.53,38.26-18.41,85.07-11.49,67.82-25.96,76.59-18.63,94.6,12.73,31.31,58.47,6.84,120.43,42.75,41.07,23.63,35.29,43.07,80.63,65.11,20.96,10.19,57.35,27.49,100.74,14.58,3.73-1.12,8.59-2.57,14.04-4.61,16.46-6.2,37.56-17.61,48.56-41.01,14.31-30.46-2.64-47.98-1.3-103.61,1.71-71.71,32.24-98.49,17.3-122.74-17.84-28.96-66.97,5.42-99.49-31.31-19.56-22.04-11.8-45.07-34.23-63.7-18.14-15.07-39.29-12.98-63.64-10.68-36.64,3.38-62.27,17.89-97.9,38.68-25.89,15.07-39.14,22.82-48.08,36.87Z"/>
      <path class="cls-5" d="M212.69,460.37c-14.34,23.12-10.28,39.82-18.75,89.08-12.34,71.56-28.46,80.31-20.77,99.57,13.39,33.18,61.91,6.93,127.98,45.41,43.64,25.34,37.41,45.73,85.49,69.94,21.45,10.8,60.58,29.93,106.68,16.45,3.94-1.16,9.1-2.67,14.86-4.81,17.31-6.45,39.74-18.5,51.12-43.56,14.69-32.33-4.18-51.36-2.88-110.56,1.67-76.34,34.85-104.41,19.47-130.04-18.56-30.93-70.95,5.89-105.42-33.59-20.7-23.69-12.13-48.47-35.89-68.48-19.21-16.19-41.63-13.96-67.45-11.44-38.68,3.72-65.8,19.66-103.67,42.23-27.5,16.37-41.52,24.81-50.76,39.8Z"/>
      <path class="cls-13" d="M258.28,412.02c-29.11,17.67-43.86,26.83-53.45,42.73-14.76,24.49-10.03,41.38-19.09,93.09-13.2,75.31-31.04,84.05-22.91,104.53,13.93,35.08,65.35,7.01,135.52,48.07,46.21,27.04,39.55,48.36,90.35,74.78,21.96,11.42,63.82,32.38,112.62,18.31,16.59-4.78,53.66-15.47,69.35-51.12,15.06-34.22-5.71-54.73-4.45-117.5,1.62-80.97,37.46-110.33,21.63-137.34-19.28-32.9-74.94,6.37-111.34-35.86-21.85-25.34-12.47-51.86-37.54-73.25-20.28-17.3-43.98-14.93-71.26-12.21-40.71,4.07-69.33,21.44-109.44,45.78Z"/>
    </g>
  </g>
</svg>